<?xml version="1.0" standalone="no"?>
<!DOCTYPE svg PUBLIC "-//W3C//DTD SVG 20010904//EN"
 "http://www.w3.org/TR/2001/REC-SVG-20010904/DTD/svg10.dtd">
<svg version="1.0" xmlns="http://www.w3.org/2000/svg"
 width="512.000000pt" height="512.000000pt" viewBox="0 0 512.000000 512.000000"
 preserveAspectRatio="xMidYMid meet">
<metadata>
Created by potrace 1.14, written by Peter Selinger 2001-2017
</metadata>
<g transform="translate(0.000000,512.000000) scale(0.100000,-0.100000)"
fill="#000000" stroke="none">
<path d="M52 5010 c-18 -11 -37 -32 -43 -47 -6 -17 -9 -109 -7 -234 4 -256 -6
-239 178 -294 l130 -39 0 -2047 0 -2047 -116 -4 -116 -3 -29 -33 c-37 -42 -39
-94 -5 -137 l24 -30 2484 -3 c2303 -3 2485 -2 2515 14 35 18 43 32 50 85 4 30
-1 43 -25 70 -28 31 -33 33 -113 36 -46 2 -89 6 -95 8 -7 2 -10 287 -10 946
l1 943 82 1 c155 3 163 16 163 281 l0 196 -34 34 -34 34 -389 0 c-213 0 -589
0 -834 0 l-447 0 1 375 c0 267 3 375 11 375 6 0 47 -12 91 -25 112 -36 139
-39 174 -20 55 28 60 50 59 271 -1 217 -7 243 -56 267 -28 15 -91 34 -414 128
-40 12 -100 30 -133 40 -33 10 -130 38 -215 63 -314 90 -746 217 -770 225 -14
5 -52 17 -85 26 -33 9 -96 27 -140 41 -44 13 -233 68 -420 123 -187 55 -527
154 -755 222 -374 109 -483 141 -530 154 -8 2 -31 9 -50 14 -48 15 -60 14 -98
-9z m473 -320 c154 -45 325 -95 380 -111 55 -17 129 -39 165 -49 36 -11 166
-49 290 -85 124 -36 254 -75 290 -85 185 -55 547 -162 560 -165 8 -1 78 -22
155 -45 77 -23 217 -64 310 -91 94 -27 319 -93 500 -147 l330 -97 1 -68 c0
-37 0 -67 -1 -67 -1 0 -80 23 -176 51 -96 28 -183 53 -194 56 -11 3 -27 7 -35
10 -8 3 -19 7 -25 8 -5 2 -104 31 -220 65 -115 34 -223 66 -240 70 -16 4 -223
65 -460 135 -236 70 -504 148 -595 175 -91 26 -259 76 -375 110 -115 34 -223
65 -240 70 -16 4 -84 24 -150 43 -66 20 -158 47 -205 61 -282 82 -364 107
-372 112 -4 3 -8 34 -8 70 0 58 2 65 18 60 9 -3 143 -41 297 -86z m319 -451
c359 -105 741 -217 971 -284 88 -25 241 -70 340 -99 99 -30 189 -56 200 -59
11 -3 90 -26 175 -52 85 -25 256 -75 380 -111 124 -36 233 -67 243 -70 16 -5
17 -33 17 -414 l0 -410 -1099 0 c-708 0 -1108 -3 -1125 -10 -55 -21 -62 -49
-61 -263 1 -168 4 -198 19 -222 25 -38 64 -51 151 -50 l75 1 0 -948 0 -948
-303 0 -304 0 0 2015 c0 1108 3 2015 5 2015 3 0 145 -41 316 -91z m4066 -1769
c0 -55 -2 -60 -22 -61 -13 0 -866 -2 -1897 -2 -1423 -2 -1877 1 -1886 10 -10
10 -11 27 -6 101 1 9 389 12 1906 12 l1905 0 0 -60z m-255 -282 c6 -5 10
-1632 6 -1855 l-1 -33 -130 0 c-128 0 -130 0 -131 23 0 12 -1 292 -2 622 -2
479 -5 605 -15 623 -28 49 -50 51 -483 52 -387 0 -405 -1 -437 -20 -18 -11
-37 -32 -42 -46 -6 -15 -10 -265 -10 -640 l0 -614 -1033 0 -1034 0 0 943 c-1
518 1 944 2 947 5 8 3302 6 3310 -2z m-470 -1332 l0 -551 -282 -3 -282 -2 0
554 0 555 282 -1 283 -1 -1 -551z"/>
<path d="M956 3635 c-17 -5 -40 -24 -51 -40 -19 -30 -20 -45 -20 -325 1 -214
4 -301 13 -317 30 -54 12 -53 802 -53 794 0 761 -2 793 54 17 31 18 580 1 623
-27 69 15 66 -786 67 -457 1 -732 -3 -752 -9z m1339 -362 l-1 -158 -597 -3
c-328 -1 -597 1 -598 5 -4 29 -5 290 -1 301 3 9 132 12 601 12 l596 0 0 -157z"/>
<path d="M1798 1838 c-14 -13 -30 -32 -36 -43 -5 -11 -8 -162 -8 -355 1 -184
0 -340 -1 -345 -2 -6 -20 -12 -41 -13 -20 -2 -47 -10 -60 -18 -42 -27 -48 -62
-47 -244 l1 -170 32 -32 32 -33 587 -1 c643 -1 638 -1 668 57 20 37 21 342 2
378 -18 36 -58 61 -99 63 l-37 1 -3 358 -3 359 -28 27 -27 28 -453 3 -452 2
-27 -22z m779 -472 l0 -283 -306 1 -305 1 -1 270 c0 149 1 276 3 283 3 9 73
12 307 12 l303 0 -1 -284z m151 -531 c-1 -19 -6 -36 -12 -38 -20 -6 -881 -1
-892 6 -8 5 -12 48 -5 65 1 1 206 2 456 2 l454 0 -1 -35z"/>
</g>
</svg>
